G04 #@! TF.GenerationSoftware,KiCad,Pcbnew,7.0.8*
G04 #@! TF.CreationDate,2024-01-10T21:48:22+09:00*
G04 #@! TF.ProjectId,ckb4,636b6234-2e6b-4696-9361-645f70636258,rev?*
G04 #@! TF.SameCoordinates,Original*
G04 #@! TF.FileFunction,Copper,L1,Top*
G04 #@! TF.FilePolarity,Positive*
%FSLAX46Y46*%
G04 Gerber Fmt 4.6, Leading zero omitted, Abs format (unit mm)*
G04 Created by KiCad (PCBNEW 7.0.8) date 2024-01-10 21:48:22*
%MOMM*%
%LPD*%
G01*
G04 APERTURE LIST*
G04 #@! TA.AperFunction,ComponentPad*
%ADD10R,1.397000X1.397000*%
G04 #@! TD*
G04 #@! TA.AperFunction,SMDPad,CuDef*
%ADD11R,0.950000X1.300000*%
G04 #@! TD*
G04 #@! TA.AperFunction,ComponentPad*
%ADD12C,1.397000*%
G04 #@! TD*
G04 #@! TA.AperFunction,ComponentPad*
%ADD13O,2.200000X1.500000*%
G04 #@! TD*
G04 #@! TA.AperFunction,SMDPad,CuDef*
%ADD14R,1.524000X1.524000*%
G04 #@! TD*
G04 #@! TA.AperFunction,ComponentPad*
%ADD15C,2.000000*%
G04 #@! TD*
G04 #@! TA.AperFunction,ComponentPad*
%ADD16R,3.200000X2.500000*%
G04 #@! TD*
G04 #@! TA.AperFunction,ComponentPad*
%ADD17C,2.250000*%
G04 #@! TD*
G04 #@! TA.AperFunction,ComponentPad*
%ADD18C,2.350000*%
G04 #@! TD*
G04 #@! TA.AperFunction,ComponentPad*
%ADD19C,1.524000*%
G04 #@! TD*
G04 #@! TA.AperFunction,ComponentPad*
%ADD20C,1.600000*%
G04 #@! TD*
G04 #@! TA.AperFunction,ComponentPad*
%ADD21C,1.800000*%
G04 #@! TD*
G04 #@! TA.AperFunction,ViaPad*
%ADD22C,0.800000*%
G04 #@! TD*
G04 #@! TA.AperFunction,Conductor*
%ADD23C,0.250000*%
G04 #@! TD*
G04 APERTURE END LIST*
D10*
X-231500000Y158810000D03*
D11*
X-231500000Y156775000D03*
X-231500000Y153225000D03*
D12*
X-231500000Y151190000D03*
D10*
X-198500000Y158810000D03*
D11*
X-198500000Y156775000D03*
X-198500000Y153225000D03*
D12*
X-198500000Y151190000D03*
D10*
X-209500000Y158810000D03*
D11*
X-209500000Y156775000D03*
X-209500000Y153225000D03*
D12*
X-209500000Y151190000D03*
D13*
X-185402500Y64850000D03*
D10*
X-240000000Y153810000D03*
D11*
X-240000000Y151775000D03*
X-240000000Y148225000D03*
D12*
X-240000000Y146190000D03*
D14*
X-260060000Y62210000D03*
X-260060000Y59670000D03*
X-260060000Y57130000D03*
D10*
X-231760000Y87055000D03*
D11*
X-231760000Y85020000D03*
X-231760000Y81470000D03*
D12*
X-231760000Y79435000D03*
D10*
X-207080000Y87100000D03*
D11*
X-207080000Y85065000D03*
X-207080000Y81515000D03*
D12*
X-207080000Y79480000D03*
D10*
X-201000000Y163810000D03*
D11*
X-201000000Y161775000D03*
X-201000000Y158225000D03*
D12*
X-201000000Y156190000D03*
D10*
X-251000000Y153810000D03*
D11*
X-251000000Y151775000D03*
X-251000000Y148225000D03*
D12*
X-251000000Y146190000D03*
D10*
X-185000000Y153810000D03*
D11*
X-185000000Y151775000D03*
X-185000000Y148225000D03*
D12*
X-185000000Y146190000D03*
D10*
X-275500000Y158810000D03*
D11*
X-275500000Y156775000D03*
X-275500000Y153225000D03*
D12*
X-275500000Y151190000D03*
D10*
X-187500000Y158810000D03*
D11*
X-187500000Y156775000D03*
X-187500000Y153225000D03*
D12*
X-187500000Y151190000D03*
D10*
X-207000000Y153810000D03*
D11*
X-207000000Y151775000D03*
X-207000000Y148225000D03*
D12*
X-207000000Y146190000D03*
D10*
X-256000000Y163810000D03*
D11*
X-256000000Y161775000D03*
X-256000000Y158225000D03*
D12*
X-256000000Y156190000D03*
D10*
X-212000000Y163810000D03*
D11*
X-212000000Y161775000D03*
X-212000000Y158225000D03*
D12*
X-212000000Y156190000D03*
D10*
X-217430000Y87070000D03*
D11*
X-217430000Y85035000D03*
X-217430000Y81485000D03*
D12*
X-217430000Y79450000D03*
D10*
X-203570000Y87100000D03*
D11*
X-203570000Y85065000D03*
X-203570000Y81515000D03*
D12*
X-203570000Y79480000D03*
D10*
X-273000000Y153810000D03*
D11*
X-273000000Y151775000D03*
X-273000000Y148225000D03*
D12*
X-273000000Y146190000D03*
D10*
X-267000000Y163810000D03*
D11*
X-267000000Y161775000D03*
X-267000000Y158225000D03*
D12*
X-267000000Y156190000D03*
D10*
X-224720000Y87055000D03*
D11*
X-224720000Y85020000D03*
X-224720000Y81470000D03*
D12*
X-224720000Y79435000D03*
D14*
X-178980000Y57440000D03*
X-178980000Y59980000D03*
X-178980000Y62520000D03*
D10*
X-234000000Y163810000D03*
D11*
X-234000000Y161775000D03*
X-234000000Y158225000D03*
D12*
X-234000000Y156190000D03*
D10*
X-210580000Y87090000D03*
D11*
X-210580000Y85055000D03*
X-210580000Y81505000D03*
D12*
X-210580000Y79470000D03*
X-214470000Y52690000D03*
X-217010000Y52690000D03*
X-219550000Y52690000D03*
X-222090000Y52690000D03*
D10*
X-224630000Y52690000D03*
X-221260000Y87055000D03*
D11*
X-221260000Y85020000D03*
X-221260000Y81470000D03*
D12*
X-221260000Y79435000D03*
D10*
X-228280000Y87070000D03*
D11*
X-228280000Y85035000D03*
X-228280000Y81485000D03*
D12*
X-228280000Y79450000D03*
D10*
X-218000000Y153810000D03*
D11*
X-218000000Y151775000D03*
X-218000000Y148225000D03*
D12*
X-218000000Y146190000D03*
D10*
X-214110000Y87090000D03*
D11*
X-214110000Y85055000D03*
X-214110000Y81505000D03*
D12*
X-214110000Y79470000D03*
D10*
X-220500000Y158810000D03*
D11*
X-220500000Y156775000D03*
X-220500000Y153225000D03*
D12*
X-220500000Y151190000D03*
D10*
X-173831250Y153828750D03*
D11*
X-173831250Y151793750D03*
X-173831250Y148243750D03*
D12*
X-173831250Y146208750D03*
D15*
X-141320000Y158010000D03*
X-141320000Y153010000D03*
X-141320000Y155510000D03*
D16*
X-133820000Y161110000D03*
X-133820000Y149910000D03*
D15*
X-126820000Y153010000D03*
X-126820000Y158010000D03*
D10*
X-242500000Y158810000D03*
D11*
X-242500000Y156775000D03*
X-242500000Y153225000D03*
D12*
X-242500000Y151190000D03*
D10*
X-176500000Y158810000D03*
D11*
X-176500000Y156775000D03*
X-176500000Y153225000D03*
D12*
X-176500000Y151190000D03*
D10*
X-235260000Y87055000D03*
D11*
X-235260000Y85020000D03*
X-235260000Y81470000D03*
D12*
X-235260000Y79435000D03*
D10*
X-196000000Y153810000D03*
D11*
X-196000000Y151775000D03*
X-196000000Y148225000D03*
D12*
X-196000000Y146190000D03*
D10*
X-229000000Y153810000D03*
D11*
X-229000000Y151775000D03*
X-229000000Y148225000D03*
D12*
X-229000000Y146190000D03*
D10*
X-278000000Y163810000D03*
D11*
X-278000000Y161775000D03*
X-278000000Y158225000D03*
D12*
X-278000000Y156190000D03*
D10*
X-245000000Y163810000D03*
D11*
X-245000000Y161775000D03*
X-245000000Y158225000D03*
D12*
X-245000000Y156190000D03*
D13*
X-242518750Y64850000D03*
D10*
X-179000000Y163810000D03*
D11*
X-179000000Y161775000D03*
X-179000000Y158225000D03*
D12*
X-179000000Y156190000D03*
D10*
X-223000000Y163810000D03*
D11*
X-223000000Y161775000D03*
X-223000000Y158225000D03*
D12*
X-223000000Y156190000D03*
D17*
X-225875000Y70300000D03*
X-225875000Y60300000D03*
D18*
X-223850000Y65300000D03*
X-215250000Y65300000D03*
D17*
X-213225000Y70300000D03*
X-213225000Y60300000D03*
D19*
X-236060000Y69808000D03*
D20*
X-217050000Y74030000D03*
X-210820000Y62800000D03*
D19*
X-236060000Y67554000D03*
D20*
X-219550000Y74030000D03*
D19*
X-236060000Y65300000D03*
D20*
X-210820000Y65300000D03*
D19*
X-236060000Y63046000D03*
D21*
X-222800000Y59550000D03*
X-216300000Y59550000D03*
D19*
X-236060000Y60792000D03*
D21*
X-222800000Y55050000D03*
D20*
X-222050000Y74030000D03*
D21*
X-216300000Y55050000D03*
D20*
X-210820000Y67800000D03*
D10*
X-264500000Y158810000D03*
D11*
X-264500000Y156775000D03*
X-264500000Y153225000D03*
D12*
X-264500000Y151190000D03*
D10*
X-253500000Y158810000D03*
D11*
X-253500000Y156775000D03*
X-253500000Y153225000D03*
D12*
X-253500000Y151190000D03*
D10*
X-190000000Y163810000D03*
D11*
X-190000000Y161775000D03*
X-190000000Y158225000D03*
D12*
X-190000000Y156190000D03*
D10*
X-262000000Y153810000D03*
D11*
X-262000000Y151775000D03*
X-262000000Y148225000D03*
D12*
X-262000000Y146190000D03*
D19*
X-314490000Y147290000D03*
X-311950000Y147290000D03*
X-309410000Y147290000D03*
X-306870000Y147290000D03*
X-304330000Y147290000D03*
X-301790000Y147290000D03*
X-299250000Y147290000D03*
X-296710000Y147290000D03*
X-294170000Y147290000D03*
X-294170000Y149830000D03*
X-294170000Y152370000D03*
X-294170000Y154910000D03*
X-294170000Y157450000D03*
X-294170000Y159990000D03*
X-294170000Y162530000D03*
X-296710000Y162530000D03*
X-299250000Y162530000D03*
X-301790000Y162530000D03*
X-304330000Y162530000D03*
X-306870000Y162530000D03*
X-309410000Y162530000D03*
X-311950000Y162530000D03*
X-314490000Y162530000D03*
D22*
X-315650000Y87060000D03*
X-301430000Y87060000D03*
X-298784500Y87060000D03*
X-140870000Y143800000D03*
X-295810000Y66379500D03*
X-297380000Y69850000D03*
X-175570000Y57390000D03*
X-296610000Y65610000D03*
X-299450000Y142320000D03*
X-280320000Y143240000D03*
X-261630000Y140650000D03*
X-245000000Y144190000D03*
X-233970000Y144500000D03*
X-222950000Y148640000D03*
X-199280000Y148010000D03*
X-168470000Y153000000D03*
X-260800000Y139780000D03*
X-242450000Y143240000D03*
X-231470000Y145130000D03*
X-220510000Y147310000D03*
X-201230000Y149447093D03*
X-165280000Y144540000D03*
X-155580000Y150010000D03*
X-149960000Y150770000D03*
X-278330000Y142610000D03*
X-260030000Y138940000D03*
X-240510000Y140920000D03*
X-187340000Y144447093D03*
X-164530000Y142200000D03*
X-147104174Y143815826D03*
X-298670000Y75420000D03*
X-124450000Y74580000D03*
X-279108504Y143236847D03*
X-162390000Y75800000D03*
X-159600000Y155750000D03*
X-156440000Y155780000D03*
X-298780000Y141380000D03*
X-282790000Y80910000D03*
X-143530000Y75360000D03*
X-297570000Y141410000D03*
X-263740000Y80840000D03*
X-240400000Y79460000D03*
X-183730000Y76480000D03*
D23*
X-222090000Y52690000D02*
X-220120000Y54660000D01*
X-220120000Y73460000D02*
X-219550000Y74030000D01*
X-220120000Y54660000D02*
X-220120000Y73460000D01*
X-219550000Y52690000D02*
X-219550000Y58030668D01*
X-219550000Y58030668D02*
X-212280668Y65300000D01*
X-212280668Y65300000D02*
X-210820000Y65300000D01*
X-217010000Y52690000D02*
X-217525000Y53205000D01*
X-217525000Y53205000D02*
X-217525000Y58325000D01*
X-217525000Y58325000D02*
X-216300000Y59550000D01*
X-214470000Y52690000D02*
X-216300000Y54520000D01*
X-216300000Y54520000D02*
X-216300000Y55050000D01*
X-211731396Y51190000D02*
X-224650000Y51190000D01*
X-224650000Y51190000D02*
X-226690000Y51190000D01*
X-224630000Y52690000D02*
X-224630000Y51210000D01*
X-224630000Y51210000D02*
X-224650000Y51190000D01*
X-210430000Y52075000D02*
X-210846396Y52075000D01*
X-210430000Y52075000D02*
X-176535000Y52075000D01*
X-210846396Y52075000D02*
X-211731396Y51190000D01*
X-226690000Y51190000D02*
X-234960000Y59460000D01*
X-261920000Y59670000D02*
X-261920000Y56990000D01*
X-211545000Y50740000D02*
X-210660000Y51625000D01*
X-180067000Y63416620D02*
X-180067000Y61067000D01*
X-261920000Y56990000D02*
X-256555000Y51625000D01*
X-256555000Y51625000D02*
X-228060000Y51625000D01*
X-179373620Y64110000D02*
X-180067000Y63416620D01*
X-227175000Y50740000D02*
X-211545000Y50740000D01*
X-176275000Y51625000D02*
X-172020000Y55880000D01*
X-172020000Y55880000D02*
X-172020000Y62450000D01*
X-172020000Y62450000D02*
X-173680000Y64110000D01*
X-210660000Y51625000D02*
X-176275000Y51625000D01*
X-228060000Y51625000D02*
X-227175000Y50740000D01*
X-173680000Y64110000D02*
X-179373620Y64110000D01*
X-180067000Y61067000D02*
X-178980000Y59980000D01*
X-179000000Y163810000D02*
X-179000000Y161775000D01*
X-223000000Y163810000D02*
X-223000000Y161775000D01*
X-245000000Y163810000D02*
X-245000000Y161775000D01*
X-212000000Y163810000D02*
X-212000000Y161775000D01*
X-267000000Y163810000D02*
X-267000000Y161775000D01*
X-256000000Y163810000D02*
X-256000000Y161775000D01*
X-278000000Y161775000D02*
X-278000000Y163810000D01*
X-201000000Y163810000D02*
X-201000000Y161775000D01*
X-234000000Y163810000D02*
X-234000000Y161775000D01*
X-190000000Y163810000D02*
X-190000000Y161775000D01*
X-253500000Y158810000D02*
X-253500000Y156775000D01*
X-187500000Y158810000D02*
X-187500000Y156775000D01*
X-231500000Y158810000D02*
X-231500000Y156775000D01*
X-220500000Y158810000D02*
X-220500000Y156775000D01*
X-198500000Y158810000D02*
X-198500000Y156775000D01*
X-264500000Y158810000D02*
X-264500000Y156775000D01*
X-275500000Y156775000D02*
X-275500000Y158810000D01*
X-209500000Y158810000D02*
X-209500000Y156775000D01*
X-242500000Y158810000D02*
X-242500000Y156775000D01*
X-176500000Y158810000D02*
X-176500000Y156775000D01*
X-273000000Y153810000D02*
X-273000000Y151775000D01*
X-251000000Y153810000D02*
X-251000000Y151775000D01*
X-185000000Y151775000D02*
X-185000000Y153810000D01*
X-196000000Y153810000D02*
X-196000000Y151775000D01*
X-229000000Y153810000D02*
X-229000000Y151775000D01*
X-218000000Y153810000D02*
X-218000000Y151775000D01*
X-240000000Y153810000D02*
X-240000000Y151775000D01*
X-173831250Y153828750D02*
X-173831250Y151793750D01*
X-262000000Y153810000D02*
X-262000000Y151775000D01*
X-207000000Y153810000D02*
X-207000000Y151775000D01*
X-207080000Y87100000D02*
X-207080000Y85065000D01*
X-301430000Y87060000D02*
X-315650000Y87060000D01*
X-231760000Y87055000D02*
X-231760000Y85020000D01*
X-228280000Y87070000D02*
X-228280000Y85035000D01*
X-296620000Y87055000D02*
X-298779500Y87055000D01*
X-298779500Y87055000D02*
X-298784500Y87060000D01*
X-210580000Y87090000D02*
X-210580000Y85055000D01*
X-235260000Y87055000D02*
X-235260000Y85020000D01*
X-214110000Y87090000D02*
X-214110000Y85055000D01*
X-203570000Y87100000D02*
X-203570000Y85065000D01*
X-221260000Y85020000D02*
X-221260000Y87055000D01*
X-235260000Y87055000D02*
X-296620000Y87055000D01*
X-224720000Y87055000D02*
X-224720000Y85020000D01*
X-217430000Y87070000D02*
X-217430000Y85035000D01*
X-126820000Y158010000D02*
X-124220000Y155410000D01*
X-124220000Y147630000D02*
X-128020000Y143830000D01*
X-124220000Y155410000D02*
X-124220000Y147630000D01*
X-140840000Y143830000D02*
X-140870000Y143800000D01*
X-128020000Y143830000D02*
X-134750000Y143830000D01*
X-133270000Y143830000D02*
X-134750000Y143830000D01*
X-134750000Y143830000D02*
X-140840000Y143830000D01*
X-221260000Y79435000D02*
X-221260000Y81470000D01*
X-126820000Y153010000D02*
X-126820000Y148690000D01*
X-132820000Y146208750D02*
X-131681250Y146208750D01*
X-173831250Y146208750D02*
X-132820000Y146208750D01*
X-129301250Y146208750D02*
X-132820000Y146208750D01*
X-173831250Y146208750D02*
X-173831250Y148243750D01*
X-126820000Y148690000D02*
X-129301250Y146208750D01*
X-291880000Y104290000D02*
X-291880000Y96580000D01*
X-296600000Y109010000D02*
X-291880000Y104290000D01*
X-296414000Y67554000D02*
X-236060000Y67554000D01*
X-299550000Y88910000D02*
X-299550000Y70690000D01*
X-299250000Y162530000D02*
X-310497000Y151283000D01*
X-291880000Y96580000D02*
X-299550000Y88910000D01*
X-310497000Y143297000D02*
X-303845000Y136645000D01*
X-303845000Y131345000D02*
X-296600000Y124100000D01*
X-303845000Y136645000D02*
X-303845000Y131345000D01*
X-310497000Y151283000D02*
X-310497000Y143297000D01*
X-296600000Y124100000D02*
X-296600000Y109010000D01*
X-299550000Y70690000D02*
X-296414000Y67554000D01*
X-237864000Y67104000D02*
X-296600396Y67104000D01*
X-297053604Y123913604D02*
X-304400000Y131260000D01*
X-313037000Y145200604D02*
X-313037000Y151283000D01*
X-304400000Y136563604D02*
X-313037000Y145200604D01*
X-236060000Y65300000D02*
X-237864000Y67104000D01*
X-297050000Y108823604D02*
X-297050000Y123913604D01*
X-296600396Y67104000D02*
X-300000000Y70503604D01*
X-292330000Y96920000D02*
X-292330000Y104103604D01*
X-292330000Y104103604D02*
X-297050000Y108823604D01*
X-297050000Y123913604D02*
X-297053604Y123913604D01*
X-304400000Y131260000D02*
X-304400000Y136563604D01*
X-313037000Y151283000D02*
X-301790000Y162530000D01*
X-300000000Y70503604D02*
X-300000000Y89250000D01*
X-300000000Y89250000D02*
X-292330000Y96920000D01*
X-236060000Y63046000D02*
X-239434000Y66420000D01*
X-239434000Y66420000D02*
X-295560000Y66420000D01*
X-297338000Y69808000D02*
X-297380000Y69850000D01*
X-234960000Y59460000D02*
X-242345000Y52075000D01*
X-234960000Y61050000D02*
X-234960000Y59460000D01*
X-234960000Y68708000D02*
X-236060000Y69808000D01*
X-234960000Y61050000D02*
X-234960000Y68708000D01*
X-173480000Y62520000D02*
X-178980000Y62520000D01*
X-260060000Y57130000D02*
X-255005000Y52075000D01*
X-242345000Y52075000D02*
X-244610000Y52075000D01*
X-234960000Y60361526D02*
X-234960000Y61050000D01*
X-255005000Y52075000D02*
X-244610000Y52075000D01*
X-236060000Y69808000D02*
X-297338000Y69808000D01*
X-176535000Y52075000D02*
X-172470000Y56140000D01*
X-172470000Y56140000D02*
X-172470000Y61510000D01*
X-172470000Y61510000D02*
X-173480000Y62520000D01*
X-289520000Y65970000D02*
X-289880000Y65610000D01*
X-289880000Y65610000D02*
X-296610000Y65610000D01*
X-210820000Y67800000D02*
X-204720000Y67800000D01*
X-208080000Y55050000D02*
X-204720000Y58410000D01*
X-204720000Y58410000D02*
X-204720000Y67800000D01*
X-204720000Y67800000D02*
X-191528667Y67800000D01*
X-175620000Y57440000D02*
X-178980000Y57440000D01*
X-181168667Y57440000D02*
X-178980000Y57440000D01*
X-175570000Y57390000D02*
X-175620000Y57440000D01*
X-236060000Y60792000D02*
X-241238000Y65970000D01*
X-260080000Y65970000D02*
X-289520000Y65970000D01*
X-191528667Y67800000D02*
X-181168667Y57440000D01*
X-241238000Y65970000D02*
X-260080000Y65970000D01*
X-260060000Y62210000D02*
X-260060000Y65950000D01*
X-260060000Y65950000D02*
X-260080000Y65970000D01*
X-216300000Y55050000D02*
X-208080000Y55050000D01*
X-278000000Y148400000D02*
X-282160000Y144240000D01*
X-278000000Y156190000D02*
X-278000000Y158225000D01*
X-282160000Y144240000D02*
X-297530000Y144240000D01*
X-297530000Y144240000D02*
X-299450000Y142320000D01*
X-278000000Y156190000D02*
X-278000000Y148400000D01*
X-267000000Y156190000D02*
X-267000000Y145570000D01*
X-278950000Y144610000D02*
X-280320000Y143240000D01*
X-267000000Y145570000D02*
X-267960000Y144610000D01*
X-267000000Y158225000D02*
X-267000000Y156190000D01*
X-267960000Y144610000D02*
X-278950000Y144610000D01*
X-261450000Y140650000D02*
X-261630000Y140650000D01*
X-261450000Y140730000D02*
X-261450000Y140650000D01*
X-256000000Y156190000D02*
X-256000000Y146180000D01*
X-256000000Y146180000D02*
X-261450000Y140730000D01*
X-256000000Y158225000D02*
X-256000000Y156190000D01*
X-245000000Y156190000D02*
X-245000000Y158225000D01*
X-245000000Y144190000D02*
X-245000000Y156190000D01*
X-233970000Y144500000D02*
X-234000000Y144530000D01*
X-234000000Y158225000D02*
X-234000000Y156190000D01*
X-234000000Y144530000D02*
X-234000000Y156190000D01*
X-223000000Y158225000D02*
X-223000000Y156190000D01*
X-223000000Y148690000D02*
X-223000000Y156190000D01*
X-222950000Y148640000D02*
X-223000000Y148690000D01*
X-199280000Y148522398D02*
X-206456393Y155698791D01*
X-206456393Y155698791D02*
X-211508791Y155698791D01*
X-199280000Y148010000D02*
X-199280000Y148522398D01*
X-211508791Y155698791D02*
X-212000000Y156190000D01*
X-212000000Y156190000D02*
X-212000000Y158225000D01*
X-188920000Y155170000D02*
X-189970000Y154120000D01*
X-189970000Y154120000D02*
X-191678407Y154120000D01*
X-188920000Y155171593D02*
X-188920000Y155170000D01*
X-170641593Y155171593D02*
X-177858407Y155171593D01*
X-180080000Y155171593D02*
X-188920000Y155171593D01*
X-201000000Y158225000D02*
X-201000000Y156190000D01*
X-177858407Y155171593D02*
X-178310000Y154720000D01*
X-191678407Y154120000D02*
X-192730000Y155171593D01*
X-199981593Y155171593D02*
X-201000000Y156190000D01*
X-179628407Y154720000D02*
X-180080000Y155171593D01*
X-168470000Y153000000D02*
X-170641593Y155171593D01*
X-192730000Y155171593D02*
X-199981593Y155171593D01*
X-178310000Y154720000D02*
X-179628407Y154720000D01*
X-190000000Y156190000D02*
X-190000000Y158225000D01*
X-253500000Y147130000D02*
X-260800000Y139830000D01*
X-253500000Y153225000D02*
X-253500000Y151190000D01*
X-260800000Y139830000D02*
X-260800000Y139780000D01*
X-253500000Y151190000D02*
X-253500000Y147130000D01*
X-242500000Y143290000D02*
X-242500000Y151190000D01*
X-242450000Y143240000D02*
X-242500000Y143290000D01*
X-242500000Y151190000D02*
X-242500000Y153225000D01*
X-231500000Y153225000D02*
X-231500000Y151190000D01*
X-231500000Y145160000D02*
X-231500000Y151190000D01*
X-231470000Y145130000D02*
X-231500000Y145160000D01*
X-220500000Y147320000D02*
X-220500000Y151190000D01*
X-220500000Y151190000D02*
X-220500000Y153225000D01*
X-220510000Y147310000D02*
X-220500000Y147320000D01*
X-202090000Y150340000D02*
X-208650000Y150340000D01*
X-209500000Y153225000D02*
X-209500000Y151190000D01*
X-201230000Y149480000D02*
X-202090000Y150340000D01*
X-201230000Y149447093D02*
X-201230000Y149480000D01*
X-208650000Y150340000D02*
X-209500000Y151190000D01*
X-196620000Y149310000D02*
X-197015000Y149705000D01*
X-165280000Y144540000D02*
X-179730380Y144540000D01*
X-198500000Y151190000D02*
X-198500000Y153225000D01*
X-197015000Y149705000D02*
X-198500000Y151190000D01*
X-184500380Y149310000D02*
X-196620000Y149310000D01*
X-179730380Y144540000D02*
X-184500380Y149310000D01*
X-187500000Y151190000D02*
X-187500000Y153225000D01*
X-155580000Y150010000D02*
X-186320000Y150010000D01*
X-186320000Y150010000D02*
X-187500000Y151190000D01*
X-150451250Y150818750D02*
X-150008750Y150818750D01*
X-150008750Y150818750D02*
X-149960000Y150770000D01*
X-176128750Y150818750D02*
X-176500000Y151190000D01*
X-150451250Y150818750D02*
X-176128750Y150818750D01*
X-176500000Y153225000D02*
X-176500000Y151190000D01*
X-262940000Y143620000D02*
X-277320000Y143620000D01*
X-277320000Y143620000D02*
X-278330000Y142610000D01*
X-262000000Y146190000D02*
X-262000000Y144560000D01*
X-262000000Y144560000D02*
X-262940000Y143620000D01*
X-262000000Y148225000D02*
X-262000000Y146190000D01*
X-252780000Y146190000D02*
X-251000000Y146190000D01*
X-260030000Y138940000D02*
X-252780000Y146190000D01*
X-251000000Y148225000D02*
X-251000000Y146190000D01*
X-240510000Y145680000D02*
X-240000000Y146190000D01*
X-240510000Y140920000D02*
X-240510000Y145680000D01*
X-240000000Y148225000D02*
X-240000000Y146190000D01*
X-229000000Y146190000D02*
X-229000000Y148225000D01*
X-218000000Y148225000D02*
X-218000000Y146190000D01*
X-207000000Y148225000D02*
X-207000000Y146190000D01*
X-205257093Y144447093D02*
X-207000000Y146190000D01*
X-187340000Y144447093D02*
X-205257093Y144447093D01*
X-196000000Y148225000D02*
X-196000000Y146190000D01*
X-194981593Y145171593D02*
X-186740000Y145171593D01*
X-196000000Y146190000D02*
X-194981593Y145171593D01*
X-185411593Y145171593D02*
X-186740000Y145171593D01*
X-164530000Y142200000D02*
X-165980000Y142200000D01*
X-167410000Y143630000D02*
X-183870000Y143630000D01*
X-165980000Y142200000D02*
X-167410000Y143630000D01*
X-183870000Y143630000D02*
X-185411593Y145171593D01*
X-182890000Y144080000D02*
X-166100000Y144080000D01*
X-165835000Y143815000D02*
X-147105000Y143815000D01*
X-185000000Y146190000D02*
X-182890000Y144080000D01*
X-166100000Y144080000D02*
X-165835000Y143815000D01*
X-147105000Y143815000D02*
X-147104174Y143815826D01*
X-185000000Y146190000D02*
X-185000000Y148225000D01*
X-290820000Y75420000D02*
X-298670000Y75420000D01*
X-224720000Y81470000D02*
X-224720000Y79435000D01*
X-224720000Y79435000D02*
X-228735000Y75420000D01*
X-228735000Y75420000D02*
X-290820000Y75420000D01*
X-214110000Y79470000D02*
X-214110000Y81505000D01*
X-214110000Y79470000D02*
X-209130000Y74490000D01*
X-209130000Y74490000D02*
X-124540000Y74490000D01*
X-124540000Y74490000D02*
X-124450000Y74580000D01*
X-264500000Y145600000D02*
X-264500000Y151190000D01*
X-264440000Y145540000D02*
X-264500000Y145600000D01*
X-277895305Y144070000D02*
X-265910000Y144070000D01*
X-265910000Y144070000D02*
X-264440000Y145540000D01*
X-264500000Y153225000D02*
X-264500000Y151190000D01*
X-279108504Y142856801D02*
X-277895305Y144070000D01*
X-279108504Y143236847D02*
X-279108504Y142856801D01*
X-207080000Y79480000D02*
X-207080000Y81515000D01*
X-203355000Y75755000D02*
X-182605000Y75755000D01*
X-182605000Y75755000D02*
X-162435000Y75755000D01*
X-207080000Y79480000D02*
X-203355000Y75755000D01*
X-162435000Y75755000D02*
X-162390000Y75800000D01*
X-179000000Y158225000D02*
X-179000000Y156190000D01*
X-156470000Y155750000D02*
X-156440000Y155780000D01*
X-159600000Y155750000D02*
X-156470000Y155750000D01*
X-281431701Y143790000D02*
X-275500000Y149721701D01*
X-275500000Y149721701D02*
X-275500000Y151190000D01*
X-296215305Y143790000D02*
X-281431701Y143790000D01*
X-275500000Y151190000D02*
X-275500000Y153225000D01*
X-298625305Y141380000D02*
X-296215305Y143790000D01*
X-298780000Y141380000D02*
X-298625305Y141380000D01*
X-228280000Y79450000D02*
X-231750000Y75980000D01*
X-277860000Y75980000D02*
X-282790000Y80910000D01*
X-228280000Y81485000D02*
X-228280000Y79450000D01*
X-231750000Y75980000D02*
X-277860000Y75980000D01*
X-206185000Y75075000D02*
X-143815000Y75075000D01*
X-206320000Y75210000D02*
X-206185000Y75075000D01*
X-143815000Y75075000D02*
X-143530000Y75360000D01*
X-210580000Y79470000D02*
X-210580000Y81505000D01*
X-210580000Y79470000D02*
X-206320000Y75210000D01*
X-273000000Y148225000D02*
X-273000000Y146190000D01*
X-297490000Y141410000D02*
X-295560000Y143340000D01*
X-297570000Y141410000D02*
X-297490000Y141410000D01*
X-295560000Y143340000D02*
X-281245305Y143340000D01*
X-281245305Y143340000D02*
X-278395305Y146190000D01*
X-278395305Y146190000D02*
X-273000000Y146190000D01*
X-234720000Y76475000D02*
X-259375000Y76475000D01*
X-231760000Y81470000D02*
X-231760000Y79435000D01*
X-231760000Y79435000D02*
X-234720000Y76475000D01*
X-259375000Y76475000D02*
X-263740000Y80840000D01*
X-217430000Y79450000D02*
X-217430000Y81485000D01*
X-240375000Y79435000D02*
X-235260000Y79435000D01*
X-235260000Y81470000D02*
X-235260000Y79435000D01*
X-240400000Y79460000D02*
X-240375000Y79435000D01*
X-183735000Y76475000D02*
X-183730000Y76480000D01*
X-200565000Y76475000D02*
X-183735000Y76475000D01*
X-203570000Y79480000D02*
X-200565000Y76475000D01*
X-203570000Y81515000D02*
X-203570000Y79480000D01*
X-146750000Y160800000D02*
X-279290000Y160800000D01*
X-143960000Y158010000D02*
X-146750000Y160800000D01*
X-309410000Y151430000D02*
X-309410000Y147290000D01*
X-279567000Y161077000D02*
X-299763000Y161077000D01*
X-299763000Y161077000D02*
X-309410000Y151430000D01*
X-141320000Y158010000D02*
X-143960000Y158010000D01*
X-279290000Y160800000D02*
X-279567000Y161077000D01*
X-141320000Y153010000D02*
X-143960000Y153010000D01*
X-306870000Y152930000D02*
X-306870000Y147290000D01*
X-291787000Y158903000D02*
X-300897000Y158903000D01*
X-290340000Y160350000D02*
X-291787000Y158903000D01*
X-300897000Y158903000D02*
X-306870000Y152930000D01*
X-143960000Y153010000D02*
X-151300000Y160350000D01*
X-151300000Y160350000D02*
X-290340000Y160350000D01*
X-261920000Y59670000D02*
X-260060000Y59670000D01*
X-306870000Y162530000D02*
X-306870000Y158086396D01*
X-306870000Y158086396D02*
X-316375000Y148581396D01*
X-295323833Y59670000D02*
X-261920000Y59670000D01*
X-316375000Y148581396D02*
X-316375000Y80721167D01*
X-316375000Y80721167D02*
X-295323833Y59670000D01*
M02*
