G04 #@! TF.GenerationSoftware,KiCad,Pcbnew,7.0.8*
G04 #@! TF.CreationDate,2024-01-10T21:48:22+09:00*
G04 #@! TF.ProjectId,ckb4,636b6234-2e6b-4696-9361-645f70636258,rev?*
G04 #@! TF.SameCoordinates,Original*
G04 #@! TF.FileFunction,Legend,Top*
G04 #@! TF.FilePolarity,Positive*
%FSLAX46Y46*%
G04 Gerber Fmt 4.6, Leading zero omitted, Abs format (unit mm)*
G04 Created by KiCad (PCBNEW 7.0.8) date 2024-01-10 21:48:22*
%MOMM*%
%LPD*%
G01*
G04 APERTURE LIST*
%ADD10C,0.150000*%
%ADD11C,0.200000*%
%ADD12R,1.397000X1.397000*%
%ADD13C,1.397000*%
%ADD14O,2.200000X1.500000*%
G04 APERTURE END LIST*
D10*
X-258341904Y57667561D02*
X-258437142Y57715180D01*
X-258437142Y57715180D02*
X-258579999Y57715180D01*
X-258579999Y57715180D02*
X-258722856Y57667561D01*
X-258722856Y57667561D02*
X-258818094Y57572323D01*
X-258818094Y57572323D02*
X-258865713Y57477085D01*
X-258865713Y57477085D02*
X-258913332Y57286609D01*
X-258913332Y57286609D02*
X-258913332Y57143752D01*
X-258913332Y57143752D02*
X-258865713Y56953276D01*
X-258865713Y56953276D02*
X-258818094Y56858038D01*
X-258818094Y56858038D02*
X-258722856Y56762800D01*
X-258722856Y56762800D02*
X-258579999Y56715180D01*
X-258579999Y56715180D02*
X-258484761Y56715180D01*
X-258484761Y56715180D02*
X-258341904Y56762800D01*
X-258341904Y56762800D02*
X-258294285Y56810419D01*
X-258294285Y56810419D02*
X-258294285Y57143752D01*
X-258294285Y57143752D02*
X-258484761Y57143752D01*
X-257865713Y56715180D02*
X-257865713Y57715180D01*
X-257865713Y57715180D02*
X-257294285Y56715180D01*
X-257294285Y56715180D02*
X-257294285Y57715180D01*
X-256818094Y56715180D02*
X-256818094Y57715180D01*
X-256818094Y57715180D02*
X-256579999Y57715180D01*
X-256579999Y57715180D02*
X-256437142Y57667561D01*
X-256437142Y57667561D02*
X-256341904Y57572323D01*
X-256341904Y57572323D02*
X-256294285Y57477085D01*
X-256294285Y57477085D02*
X-256246666Y57286609D01*
X-256246666Y57286609D02*
X-256246666Y57143752D01*
X-256246666Y57143752D02*
X-256294285Y56953276D01*
X-256294285Y56953276D02*
X-256341904Y56858038D01*
X-256341904Y56858038D02*
X-256437142Y56762800D01*
X-256437142Y56762800D02*
X-256579999Y56715180D01*
X-256579999Y56715180D02*
X-256818094Y56715180D01*
X-258863332Y62765180D02*
X-258529999Y61765180D01*
X-258529999Y61765180D02*
X-258196666Y62765180D01*
X-257291904Y61860419D02*
X-257339523Y61812800D01*
X-257339523Y61812800D02*
X-257482380Y61765180D01*
X-257482380Y61765180D02*
X-257577618Y61765180D01*
X-257577618Y61765180D02*
X-257720475Y61812800D01*
X-257720475Y61812800D02*
X-257815713Y61908038D01*
X-257815713Y61908038D02*
X-257863332Y62003276D01*
X-257863332Y62003276D02*
X-257910951Y62193752D01*
X-257910951Y62193752D02*
X-257910951Y62336609D01*
X-257910951Y62336609D02*
X-257863332Y62527085D01*
X-257863332Y62527085D02*
X-257815713Y62622323D01*
X-257815713Y62622323D02*
X-257720475Y62717561D01*
X-257720475Y62717561D02*
X-257577618Y62765180D01*
X-257577618Y62765180D02*
X-257482380Y62765180D01*
X-257482380Y62765180D02*
X-257339523Y62717561D01*
X-257339523Y62717561D02*
X-257291904Y62669942D01*
X-256291904Y61860419D02*
X-256339523Y61812800D01*
X-256339523Y61812800D02*
X-256482380Y61765180D01*
X-256482380Y61765180D02*
X-256577618Y61765180D01*
X-256577618Y61765180D02*
X-256720475Y61812800D01*
X-256720475Y61812800D02*
X-256815713Y61908038D01*
X-256815713Y61908038D02*
X-256863332Y62003276D01*
X-256863332Y62003276D02*
X-256910951Y62193752D01*
X-256910951Y62193752D02*
X-256910951Y62336609D01*
X-256910951Y62336609D02*
X-256863332Y62527085D01*
X-256863332Y62527085D02*
X-256815713Y62622323D01*
X-256815713Y62622323D02*
X-256720475Y62717561D01*
X-256720475Y62717561D02*
X-256577618Y62765180D01*
X-256577618Y62765180D02*
X-256482380Y62765180D01*
X-256482380Y62765180D02*
X-256339523Y62717561D01*
X-256339523Y62717561D02*
X-256291904Y62669942D01*
X-258132857Y59305180D02*
X-258609047Y59305180D01*
X-258609047Y59305180D02*
X-258609047Y60305180D01*
X-257799523Y59828990D02*
X-257466190Y59828990D01*
X-257323333Y59305180D02*
X-257799523Y59305180D01*
X-257799523Y59305180D02*
X-257799523Y60305180D01*
X-257799523Y60305180D02*
X-257323333Y60305180D01*
X-256894761Y59305180D02*
X-256894761Y60305180D01*
X-256894761Y60305180D02*
X-256656666Y60305180D01*
X-256656666Y60305180D02*
X-256513809Y60257561D01*
X-256513809Y60257561D02*
X-256418571Y60162323D01*
X-256418571Y60162323D02*
X-256370952Y60067085D01*
X-256370952Y60067085D02*
X-256323333Y59876609D01*
X-256323333Y59876609D02*
X-256323333Y59733752D01*
X-256323333Y59733752D02*
X-256370952Y59543276D01*
X-256370952Y59543276D02*
X-256418571Y59448038D01*
X-256418571Y59448038D02*
X-256513809Y59352800D01*
X-256513809Y59352800D02*
X-256656666Y59305180D01*
X-256656666Y59305180D02*
X-256894761Y59305180D01*
X-182622857Y59455180D02*
X-183099047Y59455180D01*
X-183099047Y59455180D02*
X-183099047Y60455180D01*
X-182289523Y59978990D02*
X-181956190Y59978990D01*
X-181813333Y59455180D02*
X-182289523Y59455180D01*
X-182289523Y59455180D02*
X-182289523Y60455180D01*
X-182289523Y60455180D02*
X-181813333Y60455180D01*
X-181384761Y59455180D02*
X-181384761Y60455180D01*
X-181384761Y60455180D02*
X-181146666Y60455180D01*
X-181146666Y60455180D02*
X-181003809Y60407561D01*
X-181003809Y60407561D02*
X-180908571Y60312323D01*
X-180908571Y60312323D02*
X-180860952Y60217085D01*
X-180860952Y60217085D02*
X-180813333Y60026609D01*
X-180813333Y60026609D02*
X-180813333Y59883752D01*
X-180813333Y59883752D02*
X-180860952Y59693276D01*
X-180860952Y59693276D02*
X-180908571Y59598038D01*
X-180908571Y59598038D02*
X-181003809Y59502800D01*
X-181003809Y59502800D02*
X-181146666Y59455180D01*
X-181146666Y59455180D02*
X-181384761Y59455180D01*
X-183243332Y57985180D02*
X-182909999Y56985180D01*
X-182909999Y56985180D02*
X-182576666Y57985180D01*
X-181671904Y57080419D02*
X-181719523Y57032800D01*
X-181719523Y57032800D02*
X-181862380Y56985180D01*
X-181862380Y56985180D02*
X-181957618Y56985180D01*
X-181957618Y56985180D02*
X-182100475Y57032800D01*
X-182100475Y57032800D02*
X-182195713Y57128038D01*
X-182195713Y57128038D02*
X-182243332Y57223276D01*
X-182243332Y57223276D02*
X-182290951Y57413752D01*
X-182290951Y57413752D02*
X-182290951Y57556609D01*
X-182290951Y57556609D02*
X-182243332Y57747085D01*
X-182243332Y57747085D02*
X-182195713Y57842323D01*
X-182195713Y57842323D02*
X-182100475Y57937561D01*
X-182100475Y57937561D02*
X-181957618Y57985180D01*
X-181957618Y57985180D02*
X-181862380Y57985180D01*
X-181862380Y57985180D02*
X-181719523Y57937561D01*
X-181719523Y57937561D02*
X-181671904Y57889942D01*
X-180671904Y57080419D02*
X-180719523Y57032800D01*
X-180719523Y57032800D02*
X-180862380Y56985180D01*
X-180862380Y56985180D02*
X-180957618Y56985180D01*
X-180957618Y56985180D02*
X-181100475Y57032800D01*
X-181100475Y57032800D02*
X-181195713Y57128038D01*
X-181195713Y57128038D02*
X-181243332Y57223276D01*
X-181243332Y57223276D02*
X-181290951Y57413752D01*
X-181290951Y57413752D02*
X-181290951Y57556609D01*
X-181290951Y57556609D02*
X-181243332Y57747085D01*
X-181243332Y57747085D02*
X-181195713Y57842323D01*
X-181195713Y57842323D02*
X-181100475Y57937561D01*
X-181100475Y57937561D02*
X-180957618Y57985180D01*
X-180957618Y57985180D02*
X-180862380Y57985180D01*
X-180862380Y57985180D02*
X-180719523Y57937561D01*
X-180719523Y57937561D02*
X-180671904Y57889942D01*
X-182621904Y62987561D02*
X-182717142Y63035180D01*
X-182717142Y63035180D02*
X-182859999Y63035180D01*
X-182859999Y63035180D02*
X-183002856Y62987561D01*
X-183002856Y62987561D02*
X-183098094Y62892323D01*
X-183098094Y62892323D02*
X-183145713Y62797085D01*
X-183145713Y62797085D02*
X-183193332Y62606609D01*
X-183193332Y62606609D02*
X-183193332Y62463752D01*
X-183193332Y62463752D02*
X-183145713Y62273276D01*
X-183145713Y62273276D02*
X-183098094Y62178038D01*
X-183098094Y62178038D02*
X-183002856Y62082800D01*
X-183002856Y62082800D02*
X-182859999Y62035180D01*
X-182859999Y62035180D02*
X-182764761Y62035180D01*
X-182764761Y62035180D02*
X-182621904Y62082800D01*
X-182621904Y62082800D02*
X-182574285Y62130419D01*
X-182574285Y62130419D02*
X-182574285Y62463752D01*
X-182574285Y62463752D02*
X-182764761Y62463752D01*
X-182145713Y62035180D02*
X-182145713Y63035180D01*
X-182145713Y63035180D02*
X-181574285Y62035180D01*
X-181574285Y62035180D02*
X-181574285Y63035180D01*
X-181098094Y62035180D02*
X-181098094Y63035180D01*
X-181098094Y63035180D02*
X-180859999Y63035180D01*
X-180859999Y63035180D02*
X-180717142Y62987561D01*
X-180717142Y62987561D02*
X-180621904Y62892323D01*
X-180621904Y62892323D02*
X-180574285Y62797085D01*
X-180574285Y62797085D02*
X-180526666Y62606609D01*
X-180526666Y62606609D02*
X-180526666Y62463752D01*
X-180526666Y62463752D02*
X-180574285Y62273276D01*
X-180574285Y62273276D02*
X-180621904Y62178038D01*
X-180621904Y62178038D02*
X-180717142Y62082800D01*
X-180717142Y62082800D02*
X-180859999Y62035180D01*
X-180859999Y62035180D02*
X-181098094Y62035180D01*
X-219883333Y76445180D02*
X-219883333Y75730895D01*
X-219883333Y75730895D02*
X-219930952Y75588038D01*
X-219930952Y75588038D02*
X-220026190Y75492800D01*
X-220026190Y75492800D02*
X-220169047Y75445180D01*
X-220169047Y75445180D02*
X-220264285Y75445180D01*
X-218883333Y75445180D02*
X-219454761Y75445180D01*
X-219169047Y75445180D02*
X-219169047Y76445180D01*
X-219169047Y76445180D02*
X-219264285Y76302323D01*
X-219264285Y76302323D02*
X-219359523Y76207085D01*
X-219359523Y76207085D02*
X-219454761Y76159466D01*
X-233992839Y62773000D02*
X-233849982Y62725380D01*
X-233849982Y62725380D02*
X-233611887Y62725380D01*
X-233611887Y62725380D02*
X-233516649Y62773000D01*
X-233516649Y62773000D02*
X-233469030Y62820619D01*
X-233469030Y62820619D02*
X-233421411Y62915857D01*
X-233421411Y62915857D02*
X-233421411Y63011095D01*
X-233421411Y63011095D02*
X-233469030Y63106333D01*
X-233469030Y63106333D02*
X-233516649Y63153952D01*
X-233516649Y63153952D02*
X-233611887Y63201571D01*
X-233611887Y63201571D02*
X-233802363Y63249190D01*
X-233802363Y63249190D02*
X-233897601Y63296809D01*
X-233897601Y63296809D02*
X-233945220Y63344428D01*
X-233945220Y63344428D02*
X-233992839Y63439666D01*
X-233992839Y63439666D02*
X-233992839Y63534904D01*
X-233992839Y63534904D02*
X-233945220Y63630142D01*
X-233945220Y63630142D02*
X-233897601Y63677761D01*
X-233897601Y63677761D02*
X-233802363Y63725380D01*
X-233802363Y63725380D02*
X-233564268Y63725380D01*
X-233564268Y63725380D02*
X-233421411Y63677761D01*
X-233088077Y63725380D02*
X-232849982Y62725380D01*
X-232849982Y62725380D02*
X-232659506Y63439666D01*
X-232659506Y63439666D02*
X-232469030Y62725380D01*
X-232469030Y62725380D02*
X-232230935Y63725380D01*
X-232992744Y65680971D02*
X-232992744Y65204780D01*
X-233326077Y66204780D02*
X-232992744Y65680971D01*
X-232992744Y65680971D02*
X-232659411Y66204780D01*
X-234453220Y69868333D02*
X-233691316Y69868333D01*
X-234072268Y69487380D02*
X-234072268Y70249285D01*
X-233357982Y70487380D02*
X-233024649Y69487380D01*
X-233024649Y69487380D02*
X-232691316Y70487380D01*
X-233675411Y61423761D02*
X-233770649Y61471380D01*
X-233770649Y61471380D02*
X-233913506Y61471380D01*
X-233913506Y61471380D02*
X-234056363Y61423761D01*
X-234056363Y61423761D02*
X-234151601Y61328523D01*
X-234151601Y61328523D02*
X-234199220Y61233285D01*
X-234199220Y61233285D02*
X-234246839Y61042809D01*
X-234246839Y61042809D02*
X-234246839Y60899952D01*
X-234246839Y60899952D02*
X-234199220Y60709476D01*
X-234199220Y60709476D02*
X-234151601Y60614238D01*
X-234151601Y60614238D02*
X-234056363Y60519000D01*
X-234056363Y60519000D02*
X-233913506Y60471380D01*
X-233913506Y60471380D02*
X-233818268Y60471380D01*
X-233818268Y60471380D02*
X-233675411Y60519000D01*
X-233675411Y60519000D02*
X-233627792Y60566619D01*
X-233627792Y60566619D02*
X-233627792Y60899952D01*
X-233627792Y60899952D02*
X-233818268Y60899952D01*
X-233199220Y60471380D02*
X-233199220Y61471380D01*
X-233199220Y61471380D02*
X-232627792Y60471380D01*
X-232627792Y60471380D02*
X-232627792Y61471380D01*
X-232151601Y60471380D02*
X-232151601Y61471380D01*
X-232151601Y61471380D02*
X-231913506Y61471380D01*
X-231913506Y61471380D02*
X-231770649Y61423761D01*
X-231770649Y61423761D02*
X-231675411Y61328523D01*
X-231675411Y61328523D02*
X-231627792Y61233285D01*
X-231627792Y61233285D02*
X-231580173Y61042809D01*
X-231580173Y61042809D02*
X-231580173Y60899952D01*
X-231580173Y60899952D02*
X-231627792Y60709476D01*
X-231627792Y60709476D02*
X-231675411Y60614238D01*
X-231675411Y60614238D02*
X-231770649Y60519000D01*
X-231770649Y60519000D02*
X-231913506Y60471380D01*
X-231913506Y60471380D02*
X-232151601Y60471380D01*
X-233278458Y68458780D02*
X-232611792Y67458780D01*
X-232611792Y68458780D02*
X-233278458Y67458780D01*
X-230750000Y157700000D02*
X-232250000Y157700000D01*
X-232250000Y157700000D02*
X-232250000Y152300000D01*
X-231000000Y155500000D02*
X-232000000Y155500000D01*
X-231500000Y155400000D02*
X-231000000Y154500000D01*
X-231000000Y154500000D02*
X-232000000Y154500000D01*
X-232000000Y154500000D02*
X-231500000Y155400000D01*
X-230750000Y152300000D02*
X-230750000Y157700000D01*
X-232250000Y152300000D02*
X-230750000Y152300000D01*
X-197750000Y157700000D02*
X-199250000Y157700000D01*
X-199250000Y157700000D02*
X-199250000Y152300000D01*
X-198000000Y155500000D02*
X-199000000Y155500000D01*
X-198500000Y155400000D02*
X-198000000Y154500000D01*
X-198000000Y154500000D02*
X-199000000Y154500000D01*
X-199000000Y154500000D02*
X-198500000Y155400000D01*
X-197750000Y152300000D02*
X-197750000Y157700000D01*
X-199250000Y152300000D02*
X-197750000Y152300000D01*
X-208750000Y157700000D02*
X-210250000Y157700000D01*
X-210250000Y157700000D02*
X-210250000Y152300000D01*
X-209000000Y155500000D02*
X-210000000Y155500000D01*
X-209500000Y155400000D02*
X-209000000Y154500000D01*
X-209000000Y154500000D02*
X-210000000Y154500000D01*
X-210000000Y154500000D02*
X-209500000Y155400000D01*
X-208750000Y152300000D02*
X-208750000Y157700000D01*
X-210250000Y152300000D02*
X-208750000Y152300000D01*
X-239250000Y152700000D02*
X-240750000Y152700000D01*
X-240750000Y152700000D02*
X-240750000Y147300000D01*
X-239500000Y150500000D02*
X-240500000Y150500000D01*
X-240000000Y150400000D02*
X-239500000Y149500000D01*
X-239500000Y149500000D02*
X-240500000Y149500000D01*
X-240500000Y149500000D02*
X-240000000Y150400000D01*
X-239250000Y147300000D02*
X-239250000Y152700000D01*
X-240750000Y147300000D02*
X-239250000Y147300000D01*
X-231010000Y85945000D02*
X-232510000Y85945000D01*
X-232510000Y85945000D02*
X-232510000Y80545000D01*
X-231260000Y83745000D02*
X-232260000Y83745000D01*
X-231760000Y83645000D02*
X-231260000Y82745000D01*
X-231260000Y82745000D02*
X-232260000Y82745000D01*
X-232260000Y82745000D02*
X-231760000Y83645000D01*
X-231010000Y80545000D02*
X-231010000Y85945000D01*
X-232510000Y80545000D02*
X-231010000Y80545000D01*
X-206330000Y85990000D02*
X-207830000Y85990000D01*
X-207830000Y85990000D02*
X-207830000Y80590000D01*
X-206580000Y83790000D02*
X-207580000Y83790000D01*
X-207080000Y83690000D02*
X-206580000Y82790000D01*
X-206580000Y82790000D02*
X-207580000Y82790000D01*
X-207580000Y82790000D02*
X-207080000Y83690000D01*
X-206330000Y80590000D02*
X-206330000Y85990000D01*
X-207830000Y80590000D02*
X-206330000Y80590000D01*
X-200250000Y162700000D02*
X-201750000Y162700000D01*
X-201750000Y162700000D02*
X-201750000Y157300000D01*
X-200500000Y160500000D02*
X-201500000Y160500000D01*
X-201000000Y160400000D02*
X-200500000Y159500000D01*
X-200500000Y159500000D02*
X-201500000Y159500000D01*
X-201500000Y159500000D02*
X-201000000Y160400000D01*
X-200250000Y157300000D02*
X-200250000Y162700000D01*
X-201750000Y157300000D02*
X-200250000Y157300000D01*
X-250250000Y152700000D02*
X-251750000Y152700000D01*
X-251750000Y152700000D02*
X-251750000Y147300000D01*
X-250500000Y150500000D02*
X-251500000Y150500000D01*
X-251000000Y150400000D02*
X-250500000Y149500000D01*
X-250500000Y149500000D02*
X-251500000Y149500000D01*
X-251500000Y149500000D02*
X-251000000Y150400000D01*
X-250250000Y147300000D02*
X-250250000Y152700000D01*
X-251750000Y147300000D02*
X-250250000Y147300000D01*
X-184250000Y152700000D02*
X-185750000Y152700000D01*
X-185750000Y152700000D02*
X-185750000Y147300000D01*
X-184500000Y150500000D02*
X-185500000Y150500000D01*
X-185000000Y150400000D02*
X-184500000Y149500000D01*
X-184500000Y149500000D02*
X-185500000Y149500000D01*
X-185500000Y149500000D02*
X-185000000Y150400000D01*
X-184250000Y147300000D02*
X-184250000Y152700000D01*
X-185750000Y147300000D02*
X-184250000Y147300000D01*
X-274750000Y157700000D02*
X-276250000Y157700000D01*
X-276250000Y157700000D02*
X-276250000Y152300000D01*
X-275000000Y155500000D02*
X-276000000Y155500000D01*
X-275500000Y155400000D02*
X-275000000Y154500000D01*
X-275000000Y154500000D02*
X-276000000Y154500000D01*
X-276000000Y154500000D02*
X-275500000Y155400000D01*
X-274750000Y152300000D02*
X-274750000Y157700000D01*
X-276250000Y152300000D02*
X-274750000Y152300000D01*
X-186750000Y157700000D02*
X-188250000Y157700000D01*
X-188250000Y157700000D02*
X-188250000Y152300000D01*
X-187000000Y155500000D02*
X-188000000Y155500000D01*
X-187500000Y155400000D02*
X-187000000Y154500000D01*
X-187000000Y154500000D02*
X-188000000Y154500000D01*
X-188000000Y154500000D02*
X-187500000Y155400000D01*
X-186750000Y152300000D02*
X-186750000Y157700000D01*
X-188250000Y152300000D02*
X-186750000Y152300000D01*
X-206250000Y152700000D02*
X-207750000Y152700000D01*
X-207750000Y152700000D02*
X-207750000Y147300000D01*
X-206500000Y150500000D02*
X-207500000Y150500000D01*
X-207000000Y150400000D02*
X-206500000Y149500000D01*
X-206500000Y149500000D02*
X-207500000Y149500000D01*
X-207500000Y149500000D02*
X-207000000Y150400000D01*
X-206250000Y147300000D02*
X-206250000Y152700000D01*
X-207750000Y147300000D02*
X-206250000Y147300000D01*
X-255250000Y162700000D02*
X-256750000Y162700000D01*
X-256750000Y162700000D02*
X-256750000Y157300000D01*
X-255500000Y160500000D02*
X-256500000Y160500000D01*
X-256000000Y160400000D02*
X-255500000Y159500000D01*
X-255500000Y159500000D02*
X-256500000Y159500000D01*
X-256500000Y159500000D02*
X-256000000Y160400000D01*
X-255250000Y157300000D02*
X-255250000Y162700000D01*
X-256750000Y157300000D02*
X-255250000Y157300000D01*
X-211250000Y162700000D02*
X-212750000Y162700000D01*
X-212750000Y162700000D02*
X-212750000Y157300000D01*
X-211500000Y160500000D02*
X-212500000Y160500000D01*
X-212000000Y160400000D02*
X-211500000Y159500000D01*
X-211500000Y159500000D02*
X-212500000Y159500000D01*
X-212500000Y159500000D02*
X-212000000Y160400000D01*
X-211250000Y157300000D02*
X-211250000Y162700000D01*
X-212750000Y157300000D02*
X-211250000Y157300000D01*
X-216680000Y85960000D02*
X-218180000Y85960000D01*
X-218180000Y85960000D02*
X-218180000Y80560000D01*
X-216930000Y83760000D02*
X-217930000Y83760000D01*
X-217430000Y83660000D02*
X-216930000Y82760000D01*
X-216930000Y82760000D02*
X-217930000Y82760000D01*
X-217930000Y82760000D02*
X-217430000Y83660000D01*
X-216680000Y80560000D02*
X-216680000Y85960000D01*
X-218180000Y80560000D02*
X-216680000Y80560000D01*
X-202820000Y85990000D02*
X-204320000Y85990000D01*
X-204320000Y85990000D02*
X-204320000Y80590000D01*
X-203070000Y83790000D02*
X-204070000Y83790000D01*
X-203570000Y83690000D02*
X-203070000Y82790000D01*
X-203070000Y82790000D02*
X-204070000Y82790000D01*
X-204070000Y82790000D02*
X-203570000Y83690000D01*
X-202820000Y80590000D02*
X-202820000Y85990000D01*
X-204320000Y80590000D02*
X-202820000Y80590000D01*
X-272250000Y152700000D02*
X-273750000Y152700000D01*
X-273750000Y152700000D02*
X-273750000Y147300000D01*
X-272500000Y150500000D02*
X-273500000Y150500000D01*
X-273000000Y150400000D02*
X-272500000Y149500000D01*
X-272500000Y149500000D02*
X-273500000Y149500000D01*
X-273500000Y149500000D02*
X-273000000Y150400000D01*
X-272250000Y147300000D02*
X-272250000Y152700000D01*
X-273750000Y147300000D02*
X-272250000Y147300000D01*
X-266250000Y162700000D02*
X-267750000Y162700000D01*
X-267750000Y162700000D02*
X-267750000Y157300000D01*
X-266500000Y160500000D02*
X-267500000Y160500000D01*
X-267000000Y160400000D02*
X-266500000Y159500000D01*
X-266500000Y159500000D02*
X-267500000Y159500000D01*
X-267500000Y159500000D02*
X-267000000Y160400000D01*
X-266250000Y157300000D02*
X-266250000Y162700000D01*
X-267750000Y157300000D02*
X-266250000Y157300000D01*
X-223970000Y85945000D02*
X-225470000Y85945000D01*
X-225470000Y85945000D02*
X-225470000Y80545000D01*
X-224220000Y83745000D02*
X-225220000Y83745000D01*
X-224720000Y83645000D02*
X-224220000Y82745000D01*
X-224220000Y82745000D02*
X-225220000Y82745000D01*
X-225220000Y82745000D02*
X-224720000Y83645000D01*
X-223970000Y80545000D02*
X-223970000Y85945000D01*
X-225470000Y80545000D02*
X-223970000Y80545000D01*
X-233250000Y162700000D02*
X-234750000Y162700000D01*
X-234750000Y162700000D02*
X-234750000Y157300000D01*
X-233500000Y160500000D02*
X-234500000Y160500000D01*
X-234000000Y160400000D02*
X-233500000Y159500000D01*
X-233500000Y159500000D02*
X-234500000Y159500000D01*
X-234500000Y159500000D02*
X-234000000Y160400000D01*
X-233250000Y157300000D02*
X-233250000Y162700000D01*
X-234750000Y157300000D02*
X-233250000Y157300000D01*
X-209830000Y85980000D02*
X-211330000Y85980000D01*
X-211330000Y85980000D02*
X-211330000Y80580000D01*
X-210080000Y83780000D02*
X-211080000Y83780000D01*
X-210580000Y83680000D02*
X-210080000Y82780000D01*
X-210080000Y82780000D02*
X-211080000Y82780000D01*
X-211080000Y82780000D02*
X-210580000Y83680000D01*
X-209830000Y80580000D02*
X-209830000Y85980000D01*
X-211330000Y80580000D02*
X-209830000Y80580000D01*
X-220510000Y85945000D02*
X-222010000Y85945000D01*
X-222010000Y85945000D02*
X-222010000Y80545000D01*
X-220760000Y83745000D02*
X-221760000Y83745000D01*
X-221260000Y83645000D02*
X-220760000Y82745000D01*
X-220760000Y82745000D02*
X-221760000Y82745000D01*
X-221760000Y82745000D02*
X-221260000Y83645000D01*
X-220510000Y80545000D02*
X-220510000Y85945000D01*
X-222010000Y80545000D02*
X-220510000Y80545000D01*
X-227530000Y85960000D02*
X-229030000Y85960000D01*
X-229030000Y85960000D02*
X-229030000Y80560000D01*
X-227780000Y83760000D02*
X-228780000Y83760000D01*
X-228280000Y83660000D02*
X-227780000Y82760000D01*
X-227780000Y82760000D02*
X-228780000Y82760000D01*
X-228780000Y82760000D02*
X-228280000Y83660000D01*
X-227530000Y80560000D02*
X-227530000Y85960000D01*
X-229030000Y80560000D02*
X-227530000Y80560000D01*
X-217250000Y152700000D02*
X-218750000Y152700000D01*
X-218750000Y152700000D02*
X-218750000Y147300000D01*
X-217500000Y150500000D02*
X-218500000Y150500000D01*
X-218000000Y150400000D02*
X-217500000Y149500000D01*
X-217500000Y149500000D02*
X-218500000Y149500000D01*
X-218500000Y149500000D02*
X-218000000Y150400000D01*
X-217250000Y147300000D02*
X-217250000Y152700000D01*
X-218750000Y147300000D02*
X-217250000Y147300000D01*
X-213360000Y85980000D02*
X-214860000Y85980000D01*
X-214860000Y85980000D02*
X-214860000Y80580000D01*
X-213610000Y83780000D02*
X-214610000Y83780000D01*
X-214110000Y83680000D02*
X-213610000Y82780000D01*
X-213610000Y82780000D02*
X-214610000Y82780000D01*
X-214610000Y82780000D02*
X-214110000Y83680000D01*
X-213360000Y80580000D02*
X-213360000Y85980000D01*
X-214860000Y80580000D02*
X-213360000Y80580000D01*
X-219750000Y157700000D02*
X-221250000Y157700000D01*
X-221250000Y157700000D02*
X-221250000Y152300000D01*
X-220000000Y155500000D02*
X-221000000Y155500000D01*
X-220500000Y155400000D02*
X-220000000Y154500000D01*
X-220000000Y154500000D02*
X-221000000Y154500000D01*
X-221000000Y154500000D02*
X-220500000Y155400000D01*
X-219750000Y152300000D02*
X-219750000Y157700000D01*
X-221250000Y152300000D02*
X-219750000Y152300000D01*
X-173081250Y152718750D02*
X-174581250Y152718750D01*
X-174581250Y152718750D02*
X-174581250Y147318750D01*
X-173331250Y150518750D02*
X-174331250Y150518750D01*
X-173831250Y150418750D02*
X-173331250Y149518750D01*
X-173331250Y149518750D02*
X-174331250Y149518750D01*
X-174331250Y149518750D02*
X-173831250Y150418750D01*
X-173081250Y147318750D02*
X-173081250Y152718750D01*
X-174581250Y147318750D02*
X-173081250Y147318750D01*
X-139376250Y161066250D02*
X-139376250Y160272500D01*
X-139376250Y150747500D02*
X-139376250Y149953750D01*
X-139376250Y149953750D02*
X-138582500Y149953750D01*
X-138582500Y161066250D02*
X-139376250Y161066250D01*
X-129057500Y161066250D02*
X-128263750Y161066250D01*
X-129057500Y149953750D02*
X-128263750Y149953750D01*
X-128263750Y161066250D02*
X-128263750Y160272500D01*
X-128263750Y149953750D02*
X-128263750Y150747500D01*
X-241750000Y157700000D02*
X-243250000Y157700000D01*
X-243250000Y157700000D02*
X-243250000Y152300000D01*
X-242000000Y155500000D02*
X-243000000Y155500000D01*
X-242500000Y155400000D02*
X-242000000Y154500000D01*
X-242000000Y154500000D02*
X-243000000Y154500000D01*
X-243000000Y154500000D02*
X-242500000Y155400000D01*
X-241750000Y152300000D02*
X-241750000Y157700000D01*
X-243250000Y152300000D02*
X-241750000Y152300000D01*
X-175750000Y157700000D02*
X-177250000Y157700000D01*
X-177250000Y157700000D02*
X-177250000Y152300000D01*
X-176000000Y155500000D02*
X-177000000Y155500000D01*
X-176500000Y155400000D02*
X-176000000Y154500000D01*
X-176000000Y154500000D02*
X-177000000Y154500000D01*
X-177000000Y154500000D02*
X-176500000Y155400000D01*
X-175750000Y152300000D02*
X-175750000Y157700000D01*
X-177250000Y152300000D02*
X-175750000Y152300000D01*
X-234510000Y85945000D02*
X-236010000Y85945000D01*
X-236010000Y85945000D02*
X-236010000Y80545000D01*
X-234760000Y83745000D02*
X-235760000Y83745000D01*
X-235260000Y83645000D02*
X-234760000Y82745000D01*
X-234760000Y82745000D02*
X-235760000Y82745000D01*
X-235760000Y82745000D02*
X-235260000Y83645000D01*
X-234510000Y80545000D02*
X-234510000Y85945000D01*
X-236010000Y80545000D02*
X-234510000Y80545000D01*
X-195250000Y152700000D02*
X-196750000Y152700000D01*
X-196750000Y152700000D02*
X-196750000Y147300000D01*
X-195500000Y150500000D02*
X-196500000Y150500000D01*
X-196000000Y150400000D02*
X-195500000Y149500000D01*
X-195500000Y149500000D02*
X-196500000Y149500000D01*
X-196500000Y149500000D02*
X-196000000Y150400000D01*
X-195250000Y147300000D02*
X-195250000Y152700000D01*
X-196750000Y147300000D02*
X-195250000Y147300000D01*
X-228250000Y152700000D02*
X-229750000Y152700000D01*
X-229750000Y152700000D02*
X-229750000Y147300000D01*
X-228500000Y150500000D02*
X-229500000Y150500000D01*
X-229000000Y150400000D02*
X-228500000Y149500000D01*
X-228500000Y149500000D02*
X-229500000Y149500000D01*
X-229500000Y149500000D02*
X-229000000Y150400000D01*
X-228250000Y147300000D02*
X-228250000Y152700000D01*
X-229750000Y147300000D02*
X-228250000Y147300000D01*
X-277250000Y162700000D02*
X-278750000Y162700000D01*
X-278750000Y162700000D02*
X-278750000Y157300000D01*
X-277500000Y160500000D02*
X-278500000Y160500000D01*
X-278000000Y160400000D02*
X-277500000Y159500000D01*
X-277500000Y159500000D02*
X-278500000Y159500000D01*
X-278500000Y159500000D02*
X-278000000Y160400000D01*
X-277250000Y157300000D02*
X-277250000Y162700000D01*
X-278750000Y157300000D02*
X-277250000Y157300000D01*
X-244250000Y162700000D02*
X-245750000Y162700000D01*
X-245750000Y162700000D02*
X-245750000Y157300000D01*
X-244500000Y160500000D02*
X-245500000Y160500000D01*
X-245000000Y160400000D02*
X-244500000Y159500000D01*
X-244500000Y159500000D02*
X-245500000Y159500000D01*
X-245500000Y159500000D02*
X-245000000Y160400000D01*
X-244250000Y157300000D02*
X-244250000Y162700000D01*
X-245750000Y157300000D02*
X-244250000Y157300000D01*
X-178250000Y162700000D02*
X-179750000Y162700000D01*
X-179750000Y162700000D02*
X-179750000Y157300000D01*
X-178500000Y160500000D02*
X-179500000Y160500000D01*
X-179000000Y160400000D02*
X-178500000Y159500000D01*
X-178500000Y159500000D02*
X-179500000Y159500000D01*
X-179500000Y159500000D02*
X-179000000Y160400000D01*
X-178250000Y157300000D02*
X-178250000Y162700000D01*
X-179750000Y157300000D02*
X-178250000Y157300000D01*
X-222250000Y162700000D02*
X-223750000Y162700000D01*
X-223750000Y162700000D02*
X-223750000Y157300000D01*
X-222500000Y160500000D02*
X-223500000Y160500000D01*
X-223000000Y160400000D02*
X-222500000Y159500000D01*
X-222500000Y159500000D02*
X-223500000Y159500000D01*
X-223500000Y159500000D02*
X-223000000Y160400000D01*
X-222250000Y157300000D02*
X-222250000Y162700000D01*
X-223750000Y157300000D02*
X-222250000Y157300000D01*
D11*
X-227663000Y68300000D02*
X-227663000Y62300000D01*
X-227663000Y62300000D02*
X-226125000Y62300000D01*
X-226125000Y71875000D02*
X-226125000Y68300000D01*
X-226125000Y71875000D02*
X-224275000Y71875000D01*
X-226125000Y68300000D02*
X-227663000Y68300000D01*
X-226125000Y58725000D02*
X-226125000Y62300000D01*
X-224275000Y71875000D02*
X-224275000Y74675000D01*
X-224012500Y58725000D02*
X-226125000Y58725000D01*
X-224012500Y53700000D02*
X-224012500Y58725000D01*
X-224012500Y53700000D02*
X-215087500Y53700000D01*
X-215087500Y53700000D02*
X-215087500Y58725000D01*
X-214825000Y74675000D02*
X-224275000Y74675000D01*
X-214825000Y71875000D02*
X-214825000Y74675000D01*
X-214825000Y71875000D02*
X-212975000Y71875000D01*
X-212975000Y71875000D02*
X-212975000Y70025000D01*
X-212975000Y58725000D02*
X-215087500Y58725000D01*
X-212975000Y58725000D02*
X-212975000Y60575000D01*
X-210175000Y70025000D02*
X-212975000Y70025000D01*
X-210175000Y60575000D02*
X-212975000Y60575000D01*
X-210175000Y60575000D02*
X-210175000Y70025000D01*
D10*
X-263750000Y157700000D02*
X-265250000Y157700000D01*
X-265250000Y157700000D02*
X-265250000Y152300000D01*
X-264000000Y155500000D02*
X-265000000Y155500000D01*
X-264500000Y155400000D02*
X-264000000Y154500000D01*
X-264000000Y154500000D02*
X-265000000Y154500000D01*
X-265000000Y154500000D02*
X-264500000Y155400000D01*
X-263750000Y152300000D02*
X-263750000Y157700000D01*
X-265250000Y152300000D02*
X-263750000Y152300000D01*
X-252750000Y157700000D02*
X-254250000Y157700000D01*
X-254250000Y157700000D02*
X-254250000Y152300000D01*
X-253000000Y155500000D02*
X-254000000Y155500000D01*
X-253500000Y155400000D02*
X-253000000Y154500000D01*
X-253000000Y154500000D02*
X-254000000Y154500000D01*
X-254000000Y154500000D02*
X-253500000Y155400000D01*
X-252750000Y152300000D02*
X-252750000Y157700000D01*
X-254250000Y152300000D02*
X-252750000Y152300000D01*
X-189250000Y162700000D02*
X-190750000Y162700000D01*
X-190750000Y162700000D02*
X-190750000Y157300000D01*
X-189500000Y160500000D02*
X-190500000Y160500000D01*
X-190000000Y160400000D02*
X-189500000Y159500000D01*
X-189500000Y159500000D02*
X-190500000Y159500000D01*
X-190500000Y159500000D02*
X-190000000Y160400000D01*
X-189250000Y157300000D02*
X-189250000Y162700000D01*
X-190750000Y157300000D02*
X-189250000Y157300000D01*
X-261250000Y152700000D02*
X-262750000Y152700000D01*
X-262750000Y152700000D02*
X-262750000Y147300000D01*
X-261500000Y150500000D02*
X-262500000Y150500000D01*
X-262000000Y150400000D02*
X-261500000Y149500000D01*
X-261500000Y149500000D02*
X-262500000Y149500000D01*
X-262500000Y149500000D02*
X-262000000Y150400000D01*
X-261250000Y147300000D02*
X-261250000Y152700000D01*
X-262750000Y147300000D02*
X-261250000Y147300000D01*
D12*
X-231500000Y158810000D03*
D13*
X-231500000Y151190000D03*
D12*
X-198500000Y158810000D03*
D13*
X-198500000Y151190000D03*
D12*
X-209500000Y158810000D03*
D13*
X-209500000Y151190000D03*
D14*
X-185402500Y64850000D03*
D12*
X-240000000Y153810000D03*
D13*
X-240000000Y146190000D03*
D12*
X-231760000Y87055000D03*
D13*
X-231760000Y79435000D03*
D12*
X-207080000Y87100000D03*
D13*
X-207080000Y79480000D03*
D12*
X-201000000Y163810000D03*
D13*
X-201000000Y156190000D03*
D12*
X-251000000Y153810000D03*
D13*
X-251000000Y146190000D03*
D12*
X-185000000Y153810000D03*
D13*
X-185000000Y146190000D03*
D12*
X-275500000Y158810000D03*
D13*
X-275500000Y151190000D03*
D12*
X-187500000Y158810000D03*
D13*
X-187500000Y151190000D03*
D12*
X-207000000Y153810000D03*
D13*
X-207000000Y146190000D03*
D12*
X-256000000Y163810000D03*
D13*
X-256000000Y156190000D03*
D12*
X-212000000Y163810000D03*
D13*
X-212000000Y156190000D03*
D12*
X-217430000Y87070000D03*
D13*
X-217430000Y79450000D03*
D12*
X-203570000Y87100000D03*
D13*
X-203570000Y79480000D03*
D12*
X-273000000Y153810000D03*
D13*
X-273000000Y146190000D03*
D12*
X-267000000Y163810000D03*
D13*
X-267000000Y156190000D03*
D12*
X-224720000Y87055000D03*
D13*
X-224720000Y79435000D03*
D12*
X-234000000Y163810000D03*
D13*
X-234000000Y156190000D03*
D12*
X-210580000Y87090000D03*
D13*
X-210580000Y79470000D03*
X-214470000Y52690000D03*
X-217010000Y52690000D03*
X-219550000Y52690000D03*
X-222090000Y52690000D03*
D12*
X-224630000Y52690000D03*
X-221260000Y87055000D03*
D13*
X-221260000Y79435000D03*
D12*
X-228280000Y87070000D03*
D13*
X-228280000Y79450000D03*
D12*
X-218000000Y153810000D03*
D13*
X-218000000Y146190000D03*
D12*
X-214110000Y87090000D03*
D13*
X-214110000Y79470000D03*
D12*
X-220500000Y158810000D03*
D13*
X-220500000Y151190000D03*
D12*
X-173831250Y153828750D03*
D13*
X-173831250Y146208750D03*
D12*
X-242500000Y158810000D03*
D13*
X-242500000Y151190000D03*
D12*
X-176500000Y158810000D03*
D13*
X-176500000Y151190000D03*
D12*
X-235260000Y87055000D03*
D13*
X-235260000Y79435000D03*
D12*
X-196000000Y153810000D03*
D13*
X-196000000Y146190000D03*
D12*
X-229000000Y153810000D03*
D13*
X-229000000Y146190000D03*
D12*
X-278000000Y163810000D03*
D13*
X-278000000Y156190000D03*
D12*
X-245000000Y163810000D03*
D13*
X-245000000Y156190000D03*
D14*
X-242518750Y64850000D03*
D12*
X-179000000Y163810000D03*
D13*
X-179000000Y156190000D03*
D12*
X-223000000Y163810000D03*
D13*
X-223000000Y156190000D03*
D12*
X-264500000Y158810000D03*
D13*
X-264500000Y151190000D03*
D12*
X-253500000Y158810000D03*
D13*
X-253500000Y151190000D03*
D12*
X-190000000Y163810000D03*
D13*
X-190000000Y156190000D03*
D12*
X-262000000Y153810000D03*
D13*
X-262000000Y146190000D03*
M02*
