M48
; DRILL file {KiCad 7.0.8} date 2024 January 10, Wednesday 21:48:25
; FORMAT={-:-/ absolute / metric / decimal}
; #@! TF.CreationDate,2024-01-10T21:48:25+09:00
; #@! TF.GenerationSoftware,Kicad,Pcbnew,7.0.8
; #@! TF.FileFunction,Plated,1,2,PTH
FMAT,2
METRIC
; #@! TA.AperFunction,Plated,PTH,ComponentDrill
T1C0.300
; #@! TA.AperFunction,Plated,PTH,ViaDrill
T2C0.400
; #@! TA.AperFunction,Plated,PTH,ComponentDrill
T3C0.762
; #@! TA.AperFunction,Plated,PTH,ComponentDrill
T4C0.813
; #@! TA.AperFunction,Plated,PTH,ComponentDrill
T5C1.000
; #@! TA.AperFunction,Plated,PTH,ComponentDrill
T6C1.200
; #@! TA.AperFunction,Plated,PTH,ComponentDrill
T7C1.500
; #@! TA.AperFunction,Plated,PTH,ComponentDrill
T8C1.600
; #@! TA.AperFunction,Plated,PTH,ComponentDrill
T9C2.000
%
G90
G05
T2
X-315.65Y87.06
X-301.43Y87.06
X-299.45Y142.32
X-298.784Y87.06
X-298.78Y141.38
X-298.67Y75.42
X-297.57Y141.41
X-297.38Y69.85
X-296.61Y65.61
X-295.81Y66.379
X-282.79Y80.91
X-280.32Y143.24
X-279.109Y143.237
X-278.33Y142.61
X-263.74Y80.84
X-261.63Y140.65
X-260.8Y139.78
X-260.03Y138.94
X-245.0Y144.19
X-242.45Y143.24
X-240.51Y140.92
X-240.4Y79.46
X-233.97Y144.5
X-231.47Y145.13
X-222.95Y148.64
X-220.51Y147.31
X-201.23Y149.447
X-199.28Y148.01
X-187.34Y144.447
X-183.73Y76.48
X-175.57Y57.39
X-168.47Y153.0
X-165.28Y144.54
X-164.53Y142.2
X-162.39Y75.8
X-159.6Y155.75
X-156.44Y155.78
X-155.58Y150.01
X-149.96Y150.77
X-147.104Y143.816
X-143.53Y75.36
X-140.87Y143.8
X-124.45Y74.58
T3
X-236.06Y69.808
X-236.06Y67.554
X-236.06Y65.3
X-236.06Y63.046
X-236.06Y60.792
T4
X-314.49Y162.53
X-314.49Y147.29
X-311.95Y162.53
X-311.95Y147.29
X-309.41Y162.53
X-309.41Y147.29
X-306.87Y162.53
X-306.87Y147.29
X-304.33Y162.53
X-304.33Y147.29
X-301.79Y162.53
X-301.79Y147.29
X-299.25Y162.53
X-299.25Y147.29
X-296.71Y162.53
X-296.71Y147.29
X-294.17Y162.53
X-294.17Y159.99
X-294.17Y157.45
X-294.17Y154.91
X-294.17Y152.37
X-294.17Y149.83
X-294.17Y147.29
X-278.0Y163.81
X-278.0Y156.19
X-275.5Y158.81
X-275.5Y151.19
X-273.0Y153.81
X-273.0Y146.19
X-267.0Y163.81
X-267.0Y156.19
X-264.5Y158.81
X-264.5Y151.19
X-262.0Y153.81
X-262.0Y146.19
X-256.0Y163.81
X-256.0Y156.19
X-253.5Y158.81
X-253.5Y151.19
X-251.0Y153.81
X-251.0Y146.19
X-245.0Y163.81
X-245.0Y156.19
X-242.5Y158.81
X-242.5Y151.19
X-240.0Y153.81
X-240.0Y146.19
X-235.26Y87.055
X-235.26Y79.435
X-234.0Y163.81
X-234.0Y156.19
X-231.76Y87.055
X-231.76Y79.435
X-231.5Y158.81
X-231.5Y151.19
X-229.0Y153.81
X-229.0Y146.19
X-228.28Y87.07
X-228.28Y79.45
X-224.72Y87.055
X-224.72Y79.435
X-224.63Y52.69
X-223.0Y163.81
X-223.0Y156.19
X-222.09Y52.69
X-221.26Y87.055
X-221.26Y79.435
X-220.5Y158.81
X-220.5Y151.19
X-219.55Y52.69
X-218.0Y153.81
X-218.0Y146.19
X-217.43Y87.07
X-217.43Y79.45
X-217.01Y52.69
X-214.47Y52.69
X-214.11Y87.09
X-214.11Y79.47
X-212.0Y163.81
X-212.0Y156.19
X-210.58Y87.09
X-210.58Y79.47
X-209.5Y158.81
X-209.5Y151.19
X-207.08Y87.1
X-207.08Y79.48
X-207.0Y153.81
X-207.0Y146.19
X-203.57Y87.1
X-203.57Y79.48
X-201.0Y163.81
X-201.0Y156.19
X-198.5Y158.81
X-198.5Y151.19
X-196.0Y153.81
X-196.0Y146.19
X-190.0Y163.81
X-190.0Y156.19
X-187.5Y158.81
X-187.5Y151.19
X-185.0Y153.81
X-185.0Y146.19
X-179.0Y163.81
X-179.0Y156.19
X-176.5Y158.81
X-176.5Y151.19
X-173.831Y153.829
X-173.831Y146.209
T5
X-222.05Y74.03
X-219.55Y74.03
X-217.05Y74.03
X-210.82Y67.8
X-210.82Y65.3
X-210.82Y62.8
X-141.32Y158.01
X-141.32Y155.51
X-141.32Y153.01
X-126.82Y158.01
X-126.82Y153.01
T6
X-222.8Y59.55
X-222.8Y55.05
X-216.3Y59.55
X-216.3Y55.05
T7
X-225.875Y70.3
X-225.875Y60.3
X-213.225Y70.3
X-213.225Y60.3
T8
X-223.85Y65.3
X-215.25Y65.3
T1
G00X-242.169Y64.85
M15
G01X-242.869Y64.85
M16
G05
G00X-185.052Y64.85
M15
G01X-185.752Y64.85
M16
G05
T9
G00X-134.22Y161.11
M15
G01X-133.42Y161.11
M16
G05
G00X-134.22Y149.91
M15
G01X-133.42Y149.91
M16
G05
T0
M30
