M48
; DRILL file {KiCad 7.0.8} date 2024 January 10, Wednesday 21:48:25
; FORMAT={-:-/ absolute / metric / decimal}
; #@! TF.CreationDate,2024-01-10T21:48:25+09:00
; #@! TF.GenerationSoftware,Kicad,Pcbnew,7.0.8
; #@! TF.FileFunction,NonPlated,1,2,NPTH
FMAT,2
METRIC
; #@! TA.AperFunction,NonPlated,NPTH,ComponentDrill
T1C1.900
; #@! TA.AperFunction,NonPlated,NPTH,ComponentDrill
T2C3.000
; #@! TA.AperFunction,NonPlated,NPTH,ComponentDrill
T3C4.100
; #@! TA.AperFunction,NonPlated,NPTH,ComponentDrill
T4C5.000
%
G90
G05
T1
X-312.68Y136.05
X-312.68Y78.9
X-310.321Y117.0
X-305.57Y97.95
X-302.52Y136.05
X-302.52Y78.9
X-300.161Y117.0
X-295.41Y97.95
X-293.63Y136.05
X-293.63Y78.9
X-288.89Y117.0
X-283.47Y136.05
X-283.47Y78.9
X-279.376Y97.95
X-278.73Y117.0
X-274.58Y136.05
X-274.58Y78.9
X-269.84Y117.0
X-269.216Y97.95
X-264.42Y136.05
X-264.42Y78.9
X-260.326Y97.95
X-259.68Y117.0
X-255.53Y136.05
X-253.569Y59.85
X-253.149Y78.9
X-250.79Y117.0
X-250.166Y97.95
X-245.37Y136.05
X-242.989Y78.9
X-242.569Y59.85
X-241.276Y97.95
X-240.63Y117.0
X-236.48Y136.05
X-231.74Y117.0
X-231.116Y97.95
X-226.32Y136.05
X-222.226Y97.95
X-221.58Y117.0
X-217.43Y136.05
X-212.69Y117.0
X-212.066Y97.95
X-207.27Y136.05
X-203.176Y97.95
X-202.53Y117.0
X-198.38Y136.05
X-196.452Y59.85
X-196.032Y78.9
X-193.64Y117.0
X-193.016Y97.95
X-188.22Y136.05
X-185.873Y78.9
X-185.452Y59.85
X-184.126Y97.95
X-183.48Y117.0
X-179.33Y136.05
X-174.601Y78.9
X-174.59Y117.0
X-173.966Y97.95
X-169.17Y136.05
X-165.076Y97.95
X-164.441Y78.9
X-164.43Y117.0
X-160.28Y136.05
X-155.551Y78.9
X-155.54Y117.0
X-154.916Y97.95
X-150.12Y136.05
X-145.391Y78.9
X-145.38Y117.0
X-141.264Y97.95
X-138.849Y136.05
X-136.501Y78.9
X-136.49Y117.0
X-131.104Y97.95
X-128.689Y136.05
X-126.341Y78.9
X-126.33Y117.0
T2
X-311.41Y138.59
X-311.41Y81.44
X-309.051Y119.54
X-305.06Y141.13
X-305.06Y83.98
X-304.3Y100.49
X-302.701Y122.08
X-297.95Y103.03
X-292.36Y138.59
X-292.36Y81.44
X-287.62Y119.54
X-286.01Y141.13
X-286.01Y83.98
X-281.27Y122.08
X-278.106Y100.49
X-273.31Y138.59
X-273.31Y81.44
X-271.756Y103.03
X-268.57Y119.54
X-266.96Y141.13
X-266.96Y83.98
X-262.22Y122.08
X-259.056Y100.49
X-254.26Y138.59
X-253.069Y56.15
X-252.706Y103.03
X-251.879Y81.44
X-249.52Y119.54
X-248.069Y53.95
X-247.91Y141.13
X-245.529Y83.98
X-243.17Y122.08
X-240.006Y100.49
X-235.21Y138.59
X-233.656Y103.03
X-230.47Y119.54
X-228.86Y141.13
X-224.12Y122.08
X-220.956Y100.49
X-216.16Y138.59
X-214.606Y103.03
X-211.42Y119.54
X-209.81Y141.13
X-205.07Y122.08
X-201.906Y100.49
X-197.11Y138.59
X-195.952Y56.15
X-195.556Y103.03
X-194.762Y81.44
X-192.37Y119.54
X-190.952Y53.95
X-190.76Y141.13
X-188.412Y83.98
X-186.02Y122.08
X-182.856Y100.49
X-178.06Y138.59
X-176.506Y103.03
X-173.331Y81.44
X-173.32Y119.54
X-171.71Y141.13
X-166.981Y83.98
X-166.97Y122.08
X-163.806Y100.49
X-159.01Y138.59
X-157.456Y103.03
X-154.281Y81.44
X-154.27Y119.54
X-152.66Y141.13
X-147.931Y83.98
X-147.92Y122.08
X-139.994Y100.49
X-137.579Y138.59
X-135.231Y81.44
X-135.22Y119.54
X-133.644Y103.03
X-131.229Y141.13
X-128.881Y83.98
X-128.87Y122.08
T3
X-307.6Y136.05
X-307.6Y78.9
X-305.241Y117.0
X-300.49Y97.95
X-288.55Y136.05
X-288.55Y78.9
X-283.81Y117.0
X-274.296Y97.95
X-269.5Y136.05
X-269.5Y78.9
X-264.76Y117.0
X-255.246Y97.95
X-250.45Y136.05
X-248.069Y78.9
X-245.71Y117.0
X-236.196Y97.95
X-231.4Y136.05
X-226.66Y117.0
X-217.146Y97.95
X-212.35Y136.05
X-207.61Y117.0
X-198.096Y97.95
X-193.3Y136.05
X-190.952Y78.9
X-188.56Y117.0
X-179.046Y97.95
X-174.25Y136.05
X-169.521Y78.9
X-169.51Y117.0
X-159.996Y97.95
X-155.2Y136.05
X-150.471Y78.9
X-150.46Y117.0
X-136.184Y97.95
X-133.769Y136.05
X-131.421Y78.9
X-131.41Y117.0
T4
X-248.069Y59.85
X-190.952Y59.85
T0
M30
